<svg xmlns="http://www.w3.org/2000/svg" width="32" height="32" viewBox="0 0 32 32"><g transform="translate(0 -1020.362)"><g transform="matrix(1.28 0 0 1.28 -31.418 999.999)"><circle cx="37.045" cy="28.409" r="12.5" fill="#e63030" fill-rule="evenodd"/></g><path fill="#e63032" style="line-height:normal;text-indent:0;text-align:start;text-decoration-line:none;text-decoration-style:solid;text-decoration-color:#000;text-transform:none;block-progression:tb;isolation:auto;mix-blend-mode:normal" d="M 20.689453 31.294922 A 16 16 0 0 0 20.728516 31.285156 A 16 16 0 0 0 22.230469 30.736328 A 16 16 0 0 0 23.669922 30.041016 A 16 16 0 0 0 25.035156 29.205078 A 16 16 0 0 0 26.306641 28.238281 A 16 16 0 0 0 27.478516 27.146484 A 16 16 0 0 0 28.533203 25.945312 A 16 16 0 0 0 29.462891 24.644531 A 16 16 0 0 0 30.259766 23.257812 A 16 16 0 0 0 30.912109 21.796875 A 16 16 0 0 0 31.283203 20.675781 L 21.302734 10.695312 C 19.840366 9.232913 17.920443 8.5019531 16 8.5019531 C 14.079536 8.5019531 12.159637 9.232913 10.697266 10.695312 C 7.7725229 13.620014 7.7725158 18.377934 10.697266 21.302734 L 20.689453 31.294922 z " color="#000" font-family="sans-serif" font-weight="400" transform="translate(0 1020.362)" white-space="normal"/><path fill="#fff" style="line-height:normal;text-indent:0;text-align:start;text-decoration-line:none;text-decoration-style:solid;text-decoration-color:#000;text-transform:none;block-progression:tb;isolation:auto;mix-blend-mode:normal" d="m 8.4980469,1 c -1.920464,0 -3.8403633,0.7309594 -5.3027344,2.1933594 -2.92474209,2.9247 -2.92474916,7.6826216 0,10.6074216 2.9247422,2.9247 7.6807265,2.9247 10.6054685,0 2.924742,-2.9248 2.924742,-7.6827216 0,-10.6074216 C 12.338407,1.7309594 10.418511,1 8.4980469,1 Z m 0,0.9941406 c 1.6624481,0 3.3244031,0.63495 4.5957031,1.90625 2.542594,2.5426 2.542594,6.6507594 0,9.1933594 -2.542593,2.5426 -6.6488128,2.5426 -9.1914062,0 -1.2713002,-1.2713 -1.9082041,-2.933253 -1.9082032,-4.5957031 1e-7,-0.2078063 0.00943,-0.4160046 0.029297,-0.6230469 0.139049,-1.449296 0.7665217,-2.8622219 1.8789063,-3.9746094 1.2712966,-1.2713 2.9332553,-1.90625 4.5957031,-1.90625 z M 10.964844,5.515625 a 0.50005,0.50005 0 0 0 -0.0039,0.00195 0.50005,0.50005 0 0 0 -0.341797,0.1523438 L 8.4960938,7.7910156 6.375,5.6699219 A 0.50005,0.50005 0 0 0 6.0175781,5.5175781 0.50005,0.50005 0 0 0 5.6679688,6.3769531 L 7.7890625,8.4980469 5.6679688,10.619141 A 0.50005,0.50005 0 1 0 6.375,11.326172 L 8.4960938,9.2050781 10.619141,11.326172 a 0.50005,0.50005 0 1 0 0.707031,-0.707031 L 9.2050781,8.4980469 11.326172,6.3769531 A 0.50005,0.50005 0 0 0 10.964844,5.515625 Z" color="#000" font-family="sans-serif" font-weight="400" overflow="visible" transform="translate(7.502 1027.865)" white-space="normal"/></g></svg>